<svg width="218" height="68" viewBox="0 0 218 68" fill="none" xmlns="http://www.w3.org/2000/svg">
<path d="M17.6475 6.08154H37.1053C37.6119 6.08154 38.1266 6.11844 38.6201 6.23254C51.9288 9.30954 50.9306 31.4434 37.3733 32.0815H20.6063" stroke="#3AA3F2" stroke-width="10.5"/>
<path d="M16.7035 29.468C17.3333 28.2732 18.7682 27.6866 20.0544 27.4121C21.0132 27.2075 22.0035 27.6625 22.6879 28.5019L48.8419 60.5843L37.8464 59.3618L18.3481 35.9074C16.1257 32.5865 16.0945 30.6236 16.7035 29.468Z" fill="#3AA3F2" stroke="#3AA3F2"/>
<path d="M0 1.08105H9.80401V59.0811L0 50.3811V1.08105Z" fill="#D6EDE5"/>
<path d="M0.140619 11.3237L0.158152 0.81092L27.066 0.769416L27.0631 11.3162L0.140619 11.3237Z" fill="#D6EDE5"/>
<path d="M66.8864 45.8409C65.0909 45.8409 63.5455 45.4773 62.25 44.75C60.9621 44.0152 59.9697 42.9773 59.2727 41.6364C58.5758 40.2879 58.2273 38.6932 58.2273 36.8523C58.2273 35.0568 58.5758 33.4811 59.2727 32.125C59.9697 30.7689 60.9508 29.7121 62.2159 28.9545C63.4886 28.197 64.9811 27.8182 66.6932 27.8182C67.8447 27.8182 68.9167 28.0038 69.9091 28.375C70.9091 28.7386 71.7803 29.2879 72.5227 30.0227C73.2727 30.7576 73.8561 31.6818 74.2727 32.7955C74.6894 33.9015 74.8977 35.197 74.8977 36.6818V38.0114H60.1591V35.0114H70.3409C70.3409 34.3144 70.1894 33.697 69.8864 33.1591C69.5833 32.6212 69.1629 32.2008 68.625 31.8977C68.0947 31.5871 67.4773 31.4318 66.7727 31.4318C66.0379 31.4318 65.3864 31.6023 64.8182 31.9432C64.2576 32.2765 63.8182 32.7273 63.5 33.2955C63.1818 33.8561 63.0189 34.4811 63.0114 35.1705V38.0227C63.0114 38.8864 63.1705 39.6326 63.4886 40.2614C63.8144 40.8902 64.2727 41.375 64.8636 41.7159C65.4545 42.0568 66.1553 42.2273 66.9659 42.2273C67.5038 42.2273 67.9962 42.1515 68.4432 42C68.8902 41.8485 69.2727 41.6212 69.5909 41.3182C69.9091 41.0152 70.1515 40.6439 70.3182 40.2045L74.7955 40.5C74.5682 41.5758 74.1023 42.5152 73.3977 43.3182C72.7008 44.1136 71.7992 44.7348 70.6932 45.1818C69.5947 45.6212 68.3258 45.8409 66.8864 45.8409ZM92.5795 33.0227L88.1477 33.2955C88.072 32.9167 87.9091 32.5758 87.6591 32.2727C87.4091 31.9621 87.0795 31.7159 86.6705 31.5341C86.2689 31.3447 85.7879 31.25 85.2273 31.25C84.4773 31.25 83.8447 31.4091 83.3295 31.7273C82.8144 32.0379 82.5568 32.4545 82.5568 32.9773C82.5568 33.3939 82.7235 33.7462 83.0568 34.0341C83.3902 34.322 83.9621 34.553 84.7727 34.7273L87.9318 35.3636C89.6288 35.7121 90.8939 36.2727 91.7273 37.0455C92.5606 37.8182 92.9773 38.8333 92.9773 40.0909C92.9773 41.2348 92.6402 42.2386 91.9659 43.1023C91.2992 43.9659 90.3826 44.6402 89.2159 45.125C88.0568 45.6023 86.7197 45.8409 85.2045 45.8409C82.8939 45.8409 81.053 45.3598 79.6818 44.3977C78.3182 43.428 77.5189 42.1098 77.2841 40.4432L82.0455 40.1932C82.1894 40.8977 82.5379 41.4356 83.0909 41.8068C83.6439 42.1705 84.3523 42.3523 85.2159 42.3523C86.0644 42.3523 86.7462 42.1894 87.2614 41.8636C87.7841 41.5303 88.0492 41.1023 88.0568 40.5795C88.0492 40.1402 87.8636 39.7803 87.5 39.5C87.1364 39.2121 86.5758 38.9924 85.8182 38.8409L82.7955 38.2386C81.0909 37.8977 79.822 37.3068 78.9886 36.4659C78.1629 35.625 77.75 34.553 77.75 33.25C77.75 32.1288 78.053 31.1629 78.6591 30.3523C79.2727 29.5417 80.1326 28.9167 81.2386 28.4773C82.3523 28.0379 83.6553 27.8182 85.1477 27.8182C87.3523 27.8182 89.0871 28.2841 90.3523 29.2159C91.625 30.1477 92.3674 31.4167 92.5795 33.0227ZM107.219 38.0682V28.0455H112.06V45.5H107.412V42.3295H107.23C106.836 43.3523 106.181 44.1742 105.264 44.7955C104.355 45.4167 103.245 45.7273 101.935 45.7273C100.768 45.7273 99.7415 45.4621 98.8551 44.9318C97.9688 44.4015 97.2756 43.6477 96.7756 42.6705C96.2831 41.6932 96.0331 40.5227 96.0256 39.1591V28.0455H100.866V38.2955C100.874 39.3258 101.151 40.1402 101.696 40.7386C102.241 41.3371 102.973 41.6364 103.889 41.6364C104.473 41.6364 105.018 41.5038 105.526 41.2386C106.033 40.9659 106.442 40.5644 106.753 40.0341C107.071 39.5038 107.226 38.8485 107.219 38.0682ZM115.932 45.5V28.0455H120.545V31.125H120.75C121.114 30.1023 121.72 29.2955 122.568 28.7045C123.417 28.1136 124.432 27.8182 125.614 27.8182C126.811 27.8182 127.83 28.1174 128.67 28.7159C129.511 29.3068 130.072 30.1098 130.352 31.125H130.534C130.89 30.125 131.534 29.3258 132.466 28.7273C133.405 28.1212 134.515 27.8182 135.795 27.8182C137.424 27.8182 138.746 28.3371 139.761 29.375C140.784 30.4053 141.295 31.8674 141.295 33.7614V45.5H136.466V34.7159C136.466 33.7462 136.208 33.0189 135.693 32.5341C135.178 32.0492 134.534 31.8068 133.761 31.8068C132.883 31.8068 132.197 32.0871 131.705 32.6477C131.212 33.2008 130.966 33.9318 130.966 34.8409V45.5H126.273V34.6136C126.273 33.7576 126.027 33.0758 125.534 32.5682C125.049 32.0606 124.409 31.8068 123.614 31.8068C123.076 31.8068 122.591 31.9432 122.159 32.2159C121.735 32.4811 121.398 32.8561 121.148 33.3409C120.898 33.8182 120.773 34.3788 120.773 35.0227V45.5H115.932ZM153.074 45.8409C151.278 45.8409 149.733 45.4773 148.438 44.75C147.15 44.0152 146.157 42.9773 145.46 41.6364C144.763 40.2879 144.415 38.6932 144.415 36.8523C144.415 35.0568 144.763 33.4811 145.46 32.125C146.157 30.7689 147.138 29.7121 148.403 28.9545C149.676 28.197 151.169 27.8182 152.881 27.8182C154.032 27.8182 155.104 28.0038 156.097 28.375C157.097 28.7386 157.968 29.2879 158.71 30.0227C159.46 30.7576 160.044 31.6818 160.46 32.7955C160.877 33.9015 161.085 35.197 161.085 36.6818V38.0114H146.347V35.0114H156.528C156.528 34.3144 156.377 33.697 156.074 33.1591C155.771 32.6212 155.35 32.2008 154.812 31.8977C154.282 31.5871 153.665 31.4318 152.96 31.4318C152.225 31.4318 151.574 31.6023 151.006 31.9432C150.445 32.2765 150.006 32.7273 149.688 33.2955C149.369 33.8561 149.206 34.4811 149.199 35.1705V38.0227C149.199 38.8864 149.358 39.6326 149.676 40.2614C150.002 40.8902 150.46 41.375 151.051 41.7159C151.642 42.0568 152.343 42.2273 153.153 42.2273C153.691 42.2273 154.184 42.1515 154.631 42C155.078 41.8485 155.46 41.6212 155.778 41.3182C156.097 41.0152 156.339 40.6439 156.506 40.2045L160.983 40.5C160.756 41.5758 160.29 42.5152 159.585 43.3182C158.888 44.1136 157.987 44.7348 156.881 45.1818C155.782 45.6212 154.513 45.8409 153.074 45.8409ZM178.767 33.0227L174.335 33.2955C174.259 32.9167 174.097 32.5758 173.847 32.2727C173.597 31.9621 173.267 31.7159 172.858 31.5341C172.456 31.3447 171.975 31.25 171.415 31.25C170.665 31.25 170.032 31.4091 169.517 31.7273C169.002 32.0379 168.744 32.4545 168.744 32.9773C168.744 33.3939 168.911 33.7462 169.244 34.0341C169.578 34.322 170.15 34.553 170.96 34.7273L174.119 35.3636C175.816 35.7121 177.081 36.2727 177.915 37.0455C178.748 37.8182 179.165 38.8333 179.165 40.0909C179.165 41.2348 178.828 42.2386 178.153 43.1023C177.487 43.9659 176.57 44.6402 175.403 45.125C174.244 45.6023 172.907 45.8409 171.392 45.8409C169.081 45.8409 167.241 45.3598 165.869 44.3977C164.506 43.428 163.706 42.1098 163.472 40.4432L168.233 40.1932C168.377 40.8977 168.725 41.4356 169.278 41.8068C169.831 42.1705 170.54 42.3523 171.403 42.3523C172.252 42.3523 172.934 42.1894 173.449 41.8636C173.972 41.5303 174.237 41.1023 174.244 40.5795C174.237 40.1402 174.051 39.7803 173.688 39.5C173.324 39.2121 172.763 38.9924 172.006 38.8409L168.983 38.2386C167.278 37.8977 166.009 37.3068 165.176 36.4659C164.35 35.625 163.938 34.553 163.938 33.25C163.938 32.1288 164.241 31.1629 164.847 30.3523C165.46 29.5417 166.32 28.9167 167.426 28.4773C168.54 28.0379 169.843 27.8182 171.335 27.8182C173.54 27.8182 175.275 28.2841 176.54 29.2159C177.813 30.1477 178.555 31.4167 178.767 33.0227ZM187.054 22.2273V45.5H182.213V22.2273H187.054ZM190.932 45.5V28.0455H195.773V45.5H190.932ZM193.364 25.7955C192.644 25.7955 192.027 25.5568 191.511 25.0795C191.004 24.5947 190.75 24.0152 190.75 23.3409C190.75 22.6742 191.004 22.1023 191.511 21.625C192.027 21.1402 192.644 20.8977 193.364 20.8977C194.083 20.8977 194.697 21.1402 195.205 21.625C195.72 22.1023 195.977 22.6742 195.977 23.3409C195.977 24.0152 195.72 24.5947 195.205 25.0795C194.697 25.5568 194.083 25.7955 193.364 25.7955ZM199.651 52.0455V28.0455H204.423V30.9773H204.639C204.851 30.5076 205.158 30.0303 205.56 29.5455C205.969 29.053 206.499 28.6439 207.151 28.3182C207.81 27.9848 208.628 27.8182 209.605 27.8182C210.878 27.8182 212.052 28.1515 213.128 28.8182C214.204 29.4773 215.063 30.4735 215.707 31.8068C216.351 33.1326 216.673 34.7955 216.673 36.7955C216.673 38.7424 216.359 40.3864 215.73 41.7273C215.109 43.0606 214.26 44.072 213.185 44.7614C212.116 45.4432 210.92 45.7841 209.594 45.7841C208.654 45.7841 207.855 45.6288 207.196 45.3182C206.545 45.0076 206.01 44.6174 205.594 44.1477C205.177 43.6705 204.859 43.1894 204.639 42.7045H204.491V52.0455H199.651ZM204.389 36.7727C204.389 37.8106 204.533 38.7159 204.821 39.4886C205.109 40.2614 205.526 40.8636 206.071 41.2955C206.616 41.7197 207.279 41.9318 208.06 41.9318C208.848 41.9318 209.514 41.7159 210.06 41.2841C210.605 40.8447 211.018 40.2386 211.298 39.4659C211.586 38.6856 211.73 37.7879 211.73 36.7727C211.73 35.7652 211.59 34.8788 211.31 34.1136C211.029 33.3485 210.616 32.75 210.071 32.3182C209.526 31.8864 208.855 31.6705 208.06 31.6705C207.272 31.6705 206.605 31.8788 206.06 32.2955C205.522 32.7121 205.109 33.303 204.821 34.0682C204.533 34.8333 204.389 35.7348 204.389 36.7727Z" fill="black"/>
</svg>
