<svg width="30" height="30" viewBox="0 0 30 30" fill="none" xmlns="http://www.w3.org/2000/svg">
<path d="M1 10.2V3C1 1.89543 1.89543 1 3 1H10.4286C11.5331 1 12.4286 1.89543 12.4286 3V10.2C12.4286 11.3046 11.5331 12.2 10.4286 12.2H3C1.89543 12.2 1 11.3046 1 10.2Z" stroke="#008080" stroke-width="2"/>
<path d="M1 27.0001V19.8C1 18.6955 1.89543 17.8 3 17.8H10.4286C11.5331 17.8 12.4286 18.6955 12.4286 19.8V27C12.4286 28.1046 11.5331 29 10.4286 29H3C1.89543 29 1 28.1046 1 27.0001Z" stroke="#008080" stroke-width="2"/>
<path d="M16.4287 2.68005H29.0001" stroke="#008080" stroke-width="2" stroke-linecap="round"/>
<path d="M16.4287 9.40002H29.0001" stroke="#008080" stroke-width="2" stroke-linecap="round"/>
<path d="M16.4287 19.48H29.0001" stroke="#008080" stroke-width="2" stroke-linecap="round"/>
<path d="M16.4287 26.2H29.0001" stroke="#008080" stroke-width="2" stroke-linecap="round"/>
</svg>
