<svg width="70" height="67" viewBox="0 0 70 67" fill="none" xmlns="http://www.w3.org/2000/svg">
<path d="M43 67H70V60C70 57.2386 67.7614 55 65 55H48C45.2386 55 43 57.2386 43 60V67Z" fill="white"/>
<path d="M4.27617 52.6837C2.55174 50.5439 2.9567 47.4643 5.18068 45.8052L24.961 31.0489L32.9283 40.935L13.148 55.6914C10.924 57.3505 7.72318 56.9609 5.99875 54.8211L4.27617 52.6837Z" fill="white"/>
<path d="M36.3053 40.3307C36.3053 40.3307 36.6654 39.7171 36.9811 39.3988C37.2859 39.0915 37.8391 38.6932 37.8391 38.6932L53.0563 27.341C53.0563 27.341 53.6049 26.9172 53.9966 26.705C54.4019 26.4855 55.1193 26.2953 55.1193 26.2953C55.1193 26.2953 52.7947 22.0689 51.0773 19.9379C49.3599 17.8068 45.9327 14.8963 45.9327 14.8963C45.9327 14.8963 45.5276 15.48 45.2012 15.7913C44.8822 16.0956 44.3663 16.5581 44.3663 16.5581L29.1492 27.9103C29.1492 27.9103 28.5953 28.32 28.1856 28.4851C27.7219 28.672 26.8705 28.6236 26.8705 28.6236C26.8705 28.6236 29.3143 32.513 31.1566 34.7989C32.9989 37.0849 36.3053 40.3307 36.3053 40.3307Z" fill="white"/>
<rect width="26.0827" height="10.4331" rx="5.21654" transform="matrix(0.805375 -0.600819 0.624472 0.77487 18.2656 19.5297)" fill="white"/>
<rect width="26.0827" height="10.4331" rx="5.21654" transform="matrix(0.805375 -0.600819 -0.624472 -0.77487 43.0752 51.9395)" fill="white"/>
</svg>
