<svg width="57" height="50" viewBox="0 0 57 50" fill="none" xmlns="http://www.w3.org/2000/svg">
<path d="M19.2974 12.5V2C19.2974 1.44772 19.7451 1 20.2974 1H54.7974C55.3496 1 55.7974 1.44772 55.7974 2V30C55.7974 30.5523 55.3496 31 54.7974 31H45.7974" stroke="white" stroke-width="2" stroke-linecap="round"/>
<path d="M27.7974 11.5H44.2974" stroke="white" stroke-width="2" stroke-linecap="round"/>
<path d="M27.7974 18.5H39.2974" stroke="white" stroke-width="2" stroke-linecap="round"/>
<path d="M44.2974 18.5L28.7974 34" stroke="white" stroke-width="2" stroke-linecap="round"/>
<circle cx="7.79736" cy="21.5" r="5" fill="white"/>
<path d="M16.2972 48.9998H1.29724C1.29724 48.9998 -1.20266 29.4163 8.29724 28.9998C18.7974 28.5395 16.2972 48.9998 16.2972 48.9998Z" fill="white" stroke="white" stroke-width="2" stroke-linecap="round"/>
<path d="M28.2974 33.9999C27.2974 32 17.2974 38.4999 17.2974 38.4999V43C17.2974 43 29.7974 36.9997 28.2974 33.9999Z" fill="white" stroke="white" stroke-width="2" stroke-linecap="round"/>
</svg>
