<svg width="30" height="30" viewBox="0 0 30 30" fill="none" xmlns="http://www.w3.org/2000/svg">
<path d="M1 18.0889V28.0001C1 28.5524 1.44772 29.0001 2 29.0001H28C28.5523 29.0001 29 28.5524 29 28.0001V18.0889" stroke="#008080" stroke-width="2" stroke-linecap="round"/>
<path d="M16.56 0.987089C16.5528 0.434851 16.0994 -0.00704705 15.5471 8.33273e-05C14.9949 0.0072137 14.553 0.460672 14.5601 1.01291L15.5601 1L16.56 0.987089ZM15.1022 20.3095C15.4977 20.695 16.1309 20.6868 16.5163 20.2913L22.7976 13.8457C23.183 13.4501 23.1749 12.817 22.7793 12.4316C22.3838 12.0461 21.7507 12.0543 21.3652 12.4498L15.7819 18.1793L10.0525 12.5959C9.65692 12.2105 9.02381 12.2186 8.63836 12.6142C8.25291 13.0097 8.26109 13.6428 8.65662 14.0283L15.1022 20.3095ZM15.5601 1L14.5601 1.01291L14.8002 19.6063L15.8001 19.5934L16.8 19.5804L16.56 0.987089L15.5601 1Z" fill="#008080"/>
</svg>
