<svg width="30" height="30" viewBox="0 0 30 30" fill="none" xmlns="http://www.w3.org/2000/svg">
<path d="M15.4064 1H3C1.89543 1 1 1.89543 1 3V27C1 28.1046 1.89543 29 3 29H21.7621C22.8666 29 23.7621 28.1046 23.7621 27V19.9538" stroke="#008080" stroke-width="2" stroke-linecap="round"/>
<path d="M26.1333 3.99984C23.5289 6.2886 15.7586 13.6045 14.4624 14.8261C14.3384 14.9429 14.2511 15.0851 14.1998 15.2475L13.4588 17.5913C13.2104 18.3773 13.9662 19.1095 14.7439 18.8361L16.9154 18.0729C17.0524 18.0248 17.1771 17.9475 17.2812 17.8463C18.2751 16.8796 23.7789 11.5294 28.5044 6.99984C30.0693 5.49984 27.556 2.74966 26.1333 3.99984Z" stroke="#008080"/>
</svg>
