<svg width="35" height="49" viewBox="0 0 35 49" fill="none" xmlns="http://www.w3.org/2000/svg">
<path d="M4.59139 27.7257C3.48205 29.1764 2.92739 30.7444 2.92739 32.4297C2.92739 34.435 3.77005 35.9924 5.45539 37.1017C6.43672 37.763 7.54605 38.0937 8.78339 38.0937C10.0421 38.0937 11.1301 37.8484 12.0474 37.3577C13.7754 36.4617 14.7461 34.9577 14.9594 32.8457C14.9807 32.6964 14.9914 32.547 14.9914 32.3977C14.9914 31.6084 14.7674 30.755 14.3194 29.8377C13.8927 28.9204 13.1887 28.0777 12.2074 27.3097L6.44739 22.7657C5.18872 21.7844 4.55939 20.515 4.55939 18.9577C4.55939 17.4004 5.06072 16.0884 6.06339 15.0217C7.06605 13.9337 8.42072 13.3897 10.1274 13.3897C10.9807 13.3897 11.9087 13.4964 12.9114 13.7097H14.1914L14.2554 17.6457H13.9354C13.9141 16.6217 13.5407 15.8217 12.8154 15.2457C12.1114 14.6484 11.2154 14.3497 10.1274 14.3497C9.06072 14.3497 8.16472 14.7124 7.43939 15.4377C6.71405 16.1417 6.35139 17.059 6.35139 18.1897C6.35139 19.299 6.82072 20.227 7.75939 20.9737L13.6794 25.6457C16.0261 27.5017 17.1994 29.7417 17.1994 32.3657C17.1994 34.3284 16.4207 36.0137 14.8634 37.4217C13.5194 38.6377 11.7274 39.2457 9.48739 39.2457C8.12205 39.2457 6.90605 38.9897 5.83939 38.4777C3.83405 37.539 2.62872 35.939 2.22339 33.6777C2.15939 33.3364 2.12739 32.9097 2.12739 32.3977C2.12739 31.8644 2.27672 31.1497 2.57539 30.2537C2.87405 29.3364 3.45005 28.419 4.30339 27.5017L4.59139 27.7257Z" fill="black"/>
<path d="M34.6636 37.0522C33.7676 37.2868 32.9676 37.4042 32.2636 37.4042C31.581 37.4042 30.973 37.3615 30.4396 37.2762C29.9063 37.1908 29.3303 37.0202 28.7116 36.7642C28.1143 36.5295 27.549 36.2522 27.0156 35.9322C26.4823 35.6122 25.949 35.2175 25.4156 34.7482C24.4343 33.9588 23.5383 33.1055 22.7276 32.1882C21.9383 31.2708 20.4023 29.5535 18.1196 27.0362C15.837 24.4975 14.3223 22.8122 13.5756 21.9802C12.829 21.1482 12.253 20.7108 11.8476 20.6682V20.3482C13.085 20.3482 13.9063 20.3268 14.3116 20.2842C14.7383 20.2202 15.1863 20.1242 15.6556 19.9962C16.125 19.8468 16.5196 19.6548 16.8396 19.4202C18.0983 18.6095 18.7276 17.2655 18.7276 15.3882C18.7276 13.8308 18.3756 12.5828 17.6716 11.6442C16.989 10.7055 16.0183 10.2255 14.7596 10.2042H10.7916V29.2762C10.7916 29.8095 10.9836 30.2788 11.3676 30.6842C11.773 31.0895 12.2636 31.2922 12.8396 31.2922H13.2236L13.2556 31.6122H6.24764V31.2922H6.66364C7.19697 31.2922 7.6663 31.1002 8.07164 30.7162C8.47697 30.3322 8.6903 29.8628 8.71164 29.3082V11.5482C8.6903 10.9935 8.47697 10.5242 8.07164 10.1402C7.68764 9.73485 7.2183 9.53218 6.66364 9.53218H6.24764V9.21218H14.8876C16.765 9.21218 18.269 9.74551 19.3996 10.8122C20.5516 11.8575 21.1276 13.2548 21.1276 15.0042C21.1276 16.7322 20.605 18.2255 19.5596 19.4842C18.5143 20.7215 17.2343 21.3402 15.7196 21.3402C15.7196 21.3402 15.709 21.3402 15.6876 21.3402C16.413 22.1082 17.2343 23.0042 18.1516 24.0282C21.8423 28.1028 24.2103 30.6628 25.2556 31.7082C26.301 32.7535 27.2183 33.6068 28.0076 34.2682C28.8183 34.9508 29.533 35.4522 30.1516 35.7722C31.4103 36.4548 32.6583 36.7962 33.8956 36.7962C34.1516 36.7962 34.4076 36.7748 34.6636 36.7322V37.0522Z" fill="black"/>
<path d="M8.20985 43.9177C8.09785 43.947 7.99785 43.9617 7.90985 43.9617C7.82451 43.9617 7.74851 43.9564 7.68185 43.9457C7.61518 43.935 7.54318 43.9137 7.46585 43.8817C7.39118 43.8524 7.32051 43.8177 7.25385 43.7777C7.18718 43.7377 7.12051 43.6884 7.05385 43.6297C6.93118 43.531 6.81918 43.4244 6.71785 43.3097C6.61918 43.195 6.42718 42.9804 6.14185 42.6657C5.85651 42.3484 5.66718 42.1377 5.57385 42.0337C5.48051 41.9297 5.40851 41.875 5.35785 41.8697V41.8297C5.51251 41.8297 5.61518 41.827 5.66585 41.8217C5.71918 41.8137 5.77518 41.8017 5.83385 41.7857C5.89251 41.767 5.94185 41.743 5.98185 41.7137C6.13918 41.6124 6.21785 41.4444 6.21785 41.2097C6.21785 41.015 6.17385 40.859 6.08585 40.7417C6.00051 40.6244 5.87918 40.5644 5.72185 40.5617H5.22585V42.9457C5.22585 43.0124 5.24985 43.071 5.29785 43.1217C5.34851 43.1724 5.40985 43.1977 5.48185 43.1977H5.52985L5.53385 43.2377H4.65785V43.1977H4.70985C4.77651 43.1977 4.83518 43.1737 4.88585 43.1257C4.93651 43.0777 4.96318 43.019 4.96585 42.9497V40.7297C4.96318 40.6604 4.93651 40.6017 4.88585 40.5537C4.83785 40.503 4.77918 40.4777 4.70985 40.4777H4.65785V40.4377H5.73785C5.97251 40.4377 6.16051 40.5044 6.30185 40.6377C6.44585 40.7684 6.51785 40.943 6.51785 41.1617C6.51785 41.3777 6.45251 41.5644 6.32185 41.7217C6.19118 41.8764 6.03118 41.9537 5.84185 41.9537C5.84185 41.9537 5.84051 41.9537 5.83785 41.9537C5.92851 42.0497 6.03118 42.1617 6.14585 42.2897C6.60718 42.799 6.90318 43.119 7.03385 43.2497C7.16451 43.3804 7.27918 43.487 7.37785 43.5697C7.47918 43.655 7.56851 43.7177 7.64585 43.7577C7.80318 43.843 7.95918 43.8857 8.11385 43.8857C8.14585 43.8857 8.17785 43.883 8.20985 43.8777V43.9177ZM7.31922 43.1977C7.38856 43.1977 7.44722 43.1737 7.49522 43.1257C7.54589 43.075 7.57256 43.015 7.57522 42.9457V40.7057C7.57522 40.6417 7.54989 40.5884 7.49922 40.5457C7.44856 40.5004 7.38856 40.4777 7.31922 40.4777H7.27122L7.26722 40.4377H8.43922C8.52189 40.4377 8.61122 40.4297 8.70722 40.4137C8.80589 40.3977 8.87522 40.3817 8.91522 40.3657V40.8697H8.87522V40.7977C8.87522 40.7337 8.85256 40.679 8.80722 40.6337C8.76456 40.5884 8.71256 40.5644 8.65122 40.5617H7.83522V41.7977H8.51122C8.56456 41.795 8.60989 41.775 8.64722 41.7377C8.68456 41.7004 8.70322 41.6537 8.70322 41.5977V41.5417H8.74322V42.1737H8.70322V42.1137C8.70322 42.0604 8.68456 42.015 8.64722 41.9777C8.61256 41.9404 8.56856 41.9204 8.51522 41.9177H7.83522V43.1137H8.40722C8.60456 43.1137 8.75522 43.0697 8.85922 42.9817C8.96322 42.8937 9.04989 42.763 9.11922 42.5897H9.15922L8.92722 43.2377H7.26722V43.1977H7.31922ZM9.57982 43.0737C9.57182 43.0364 9.56782 42.9644 9.56782 42.8577C9.56782 42.751 9.58782 42.6377 9.62782 42.5177H9.66382C9.66115 42.547 9.65982 42.5764 9.65982 42.6057C9.65982 42.7684 9.70915 42.9044 9.80782 43.0137C9.90648 43.1204 10.0371 43.1737 10.1998 43.1737C10.3678 43.1737 10.5051 43.123 10.6118 43.0217C10.7211 42.9204 10.7758 42.7937 10.7758 42.6417C10.7758 42.487 10.7238 42.3617 10.6198 42.2657L9.85182 41.5537C9.70782 41.4204 9.63582 41.259 9.63582 41.0697C9.63582 40.8804 9.69848 40.719 9.82382 40.5857C9.95182 40.4497 10.1238 40.3817 10.3398 40.3817C10.4411 40.3817 10.5558 40.395 10.6838 40.4217H10.8398V40.9137H10.8038C10.8038 40.7884 10.7598 40.6884 10.6718 40.6137C10.5865 40.539 10.4758 40.5017 10.3398 40.5017C10.2038 40.5017 10.0891 40.547 9.99582 40.6377C9.90515 40.7284 9.85982 40.8417 9.85982 40.9777C9.85982 41.1137 9.91315 41.231 10.0198 41.3297L10.8078 42.0577C10.9411 42.1804 11.0078 42.3484 11.0078 42.5617C11.0078 42.775 10.9398 42.951 10.8038 43.0897C10.6678 43.2257 10.4865 43.2937 10.2598 43.2937C10.1425 43.2937 10.0171 43.275 9.88382 43.2377C9.75315 43.203 9.65182 43.1484 9.57982 43.0737ZM14.1782 40.4777H14.1142C14.0582 40.4777 14.0088 40.4964 13.9662 40.5337C13.9262 40.5684 13.9048 40.6124 13.9022 40.6657V42.2497C13.9022 42.5617 13.8035 42.8137 13.6062 43.0057C13.4088 43.1977 13.1462 43.2937 12.8182 43.2937C12.4902 43.2937 12.2235 43.199 12.0182 43.0097C11.8155 42.8177 11.7142 42.5657 11.7142 42.2537V40.6777C11.7142 40.5977 11.6795 40.539 11.6102 40.5017C11.5782 40.4857 11.5422 40.4777 11.5022 40.4777H11.4382V40.4377H12.2502V40.4777H12.1862C12.1275 40.4777 12.0782 40.4964 12.0382 40.5337C11.9982 40.5684 11.9768 40.6137 11.9742 40.6697V42.1977C11.9742 42.4884 12.0515 42.723 12.2062 42.9017C12.3635 43.0804 12.5728 43.1697 12.8342 43.1697C13.0955 43.1697 13.3075 43.0857 13.4702 42.9177C13.6328 42.747 13.7142 42.5244 13.7142 42.2497V40.6697C13.7115 40.6137 13.6902 40.5684 13.6502 40.5337C13.6102 40.4964 13.5608 40.4777 13.5022 40.4777H13.4382V40.4377H14.1782V40.4777ZM17.9007 43.1977H17.9647V43.2377H17.0967V43.2017H17.1567C17.202 43.2017 17.2407 43.1844 17.2727 43.1497C17.3047 43.115 17.318 43.075 17.3127 43.0297L17.1327 41.0177L16.2927 42.8857C16.218 43.0484 16.1727 43.1844 16.1567 43.2937H16.1167L15.0927 41.0737L14.9207 43.0297C14.9153 43.0724 14.9287 43.1124 14.9607 43.1497C14.9927 43.1844 15.0313 43.2017 15.0767 43.2017H15.1367V43.2377H14.3607V43.1977H14.4247C14.4993 43.1977 14.5633 43.175 14.6167 43.1297C14.6727 43.0844 14.706 43.023 14.7167 42.9457L15.0167 40.3817H15.0567L16.1727 42.7937L17.2647 40.3817H17.3007L17.6087 42.9457C17.6193 43.023 17.6527 43.0844 17.7087 43.1297C17.7647 43.175 17.8287 43.1977 17.9007 43.1977ZM18.3153 43.1977C18.3846 43.1977 18.4433 43.1737 18.4913 43.1257C18.542 43.075 18.5686 43.015 18.5713 42.9457V40.7057C18.5713 40.6417 18.546 40.5884 18.4953 40.5457C18.4446 40.5004 18.3846 40.4777 18.3153 40.4777H18.2673L18.2633 40.4377H19.4353C19.518 40.4377 19.6073 40.4297 19.7033 40.4137C19.802 40.3977 19.8713 40.3817 19.9113 40.3657V40.8697H19.8713V40.7977C19.8713 40.7337 19.8486 40.679 19.8033 40.6337C19.7606 40.5884 19.7086 40.5644 19.6473 40.5617H18.8313V41.7977H19.5073C19.5606 41.795 19.606 41.775 19.6433 41.7377C19.6806 41.7004 19.6993 41.6537 19.6993 41.5977V41.5417H19.7393V42.1737H19.6993V42.1137C19.6993 42.0604 19.6806 42.015 19.6433 41.9777C19.6086 41.9404 19.5646 41.9204 19.5113 41.9177H18.8313V43.1137H19.4033C19.6006 43.1137 19.7513 43.0697 19.8553 42.9817C19.9593 42.8937 20.046 42.763 20.1153 42.5897H20.1553L19.9233 43.2377H18.2633V43.1977H18.3153ZM21.8079 42.1737C21.6692 42.355 21.5999 42.551 21.5999 42.7617C21.5999 43.0124 21.7052 43.207 21.9159 43.3457C22.0386 43.4284 22.1772 43.4697 22.3319 43.4697C22.4892 43.4697 22.6252 43.439 22.7399 43.3777C22.9559 43.2657 23.0772 43.0777 23.1039 42.8137C23.1066 42.795 23.1079 42.7764 23.1079 42.7577C23.1079 42.659 23.0799 42.5524 23.0239 42.4377C22.9706 42.323 22.8826 42.2177 22.7599 42.1217L22.0399 41.5537C21.8826 41.431 21.8039 41.2724 21.8039 41.0777C21.8039 40.883 21.8666 40.719 21.9919 40.5857C22.1172 40.4497 22.2866 40.3817 22.4999 40.3817C22.6066 40.3817 22.7226 40.395 22.8479 40.4217H23.0079L23.0159 40.9137H22.9759C22.9732 40.7857 22.9266 40.6857 22.8359 40.6137C22.7479 40.539 22.6359 40.5017 22.4999 40.5017C22.3666 40.5017 22.2546 40.547 22.1639 40.6377C22.0732 40.7257 22.0279 40.8404 22.0279 40.9817C22.0279 41.1204 22.0866 41.2364 22.2039 41.3297L22.9439 41.9137C23.2372 42.1457 23.3839 42.4257 23.3839 42.7537C23.3839 42.999 23.2866 43.2097 23.0919 43.3857C22.9239 43.5377 22.6999 43.6137 22.4199 43.6137C22.2492 43.6137 22.0972 43.5817 21.9639 43.5177C21.7132 43.4004 21.5626 43.2004 21.5119 42.9177C21.5039 42.875 21.4999 42.8217 21.4999 42.7577C21.4999 42.691 21.5186 42.6017 21.5559 42.4897C21.5932 42.375 21.6652 42.2604 21.7719 42.1457L21.8079 42.1737ZM23.8192 43.1977C23.8886 43.1977 23.9472 43.1737 23.9952 43.1257C24.0459 43.075 24.0726 43.015 24.0752 42.9457V40.7297C24.0726 40.6604 24.0459 40.6017 23.9952 40.5537C23.9472 40.503 23.8886 40.4777 23.8192 40.4777H23.7672V40.4377H24.6432V40.4777H24.5912C24.4952 40.4777 24.4219 40.519 24.3712 40.6017C24.3472 40.6417 24.3352 40.6844 24.3352 40.7297V43.1137H24.9072C25.1046 43.1137 25.2552 43.0697 25.3592 42.9817C25.4632 42.8937 25.5499 42.763 25.6192 42.5897H25.6592L25.4272 43.2377H23.7672V43.1977H23.8192ZM26.0067 43.1977C26.0761 43.1977 26.1347 43.1737 26.1827 43.1257C26.2334 43.075 26.2601 43.015 26.2627 42.9457V40.7257C26.2601 40.6564 26.2334 40.5977 26.1827 40.5497C26.1347 40.5017 26.0761 40.4777 26.0067 40.4777H25.9547V40.4377H26.8307V40.4777H26.7787C26.7094 40.4777 26.6494 40.5017 26.5987 40.5497C26.5507 40.5977 26.5254 40.6564 26.5227 40.7257V42.9457C26.5227 43.015 26.5481 43.075 26.5987 43.1257C26.6494 43.1737 26.7094 43.1977 26.7787 43.1977H26.8307V43.2377H25.9547V43.1977H26.0067ZM29.1743 41.2097C29.1743 41.327 29.1503 41.4364 29.1023 41.5377C29.0143 41.727 28.8596 41.859 28.6383 41.9337C28.561 41.9604 28.4943 41.9737 28.4383 41.9737C28.273 41.9737 28.1303 41.943 28.0103 41.8817V41.8417C28.205 41.8844 28.385 41.863 28.5503 41.7777C28.697 41.703 28.797 41.5804 28.8503 41.4097C28.8663 41.3564 28.8743 41.3057 28.8743 41.2577C28.8743 41.2097 28.8743 41.1804 28.8743 41.1697C28.869 40.983 28.8196 40.835 28.7263 40.7257C28.633 40.6137 28.5023 40.5577 28.3343 40.5577H27.8743V42.9457C27.877 43.015 27.9023 43.075 27.9503 43.1257C28.001 43.1737 28.061 43.1977 28.1303 43.1977H28.1823V43.2377H27.3063V43.1977H27.3583C27.4276 43.1977 27.4863 43.1737 27.5343 43.1257C27.585 43.075 27.6116 43.015 27.6143 42.9457V40.7097C27.6063 40.643 27.5783 40.5884 27.5303 40.5457C27.4823 40.5004 27.425 40.4777 27.3583 40.4777H27.3103L27.3063 40.4377H28.3503C28.6063 40.4377 28.8076 40.507 28.9543 40.6457C29.101 40.7817 29.1743 40.9697 29.1743 41.2097Z" fill="black"/>
</svg>
