<svg width="51" height="50" viewBox="0 0 51 50" fill="none" xmlns="http://www.w3.org/2000/svg">
<path d="M45.2764 37.1974C44.3804 37.432 43.5804 37.5494 42.8764 37.5494C42.1937 37.5494 41.5857 37.5067 41.0524 37.4214C40.519 37.336 39.943 37.1654 39.3244 36.9094C38.727 36.6747 38.1617 36.3974 37.6284 36.0774C37.095 35.7574 36.5617 35.3627 36.0284 34.8934C35.047 34.104 34.151 33.2507 33.3404 32.3334C32.551 31.416 31.015 29.6987 28.7324 27.1814C26.4497 24.6427 24.935 22.9574 24.1884 22.1254C23.4417 21.2934 22.8657 20.856 22.4604 20.8134V20.4934C23.6977 20.4934 24.519 20.472 24.9244 20.4294C25.351 20.3654 25.799 20.2694 26.2684 20.1414C26.7377 19.992 27.1324 19.8 27.4524 19.5654C28.711 18.7547 29.3404 17.4107 29.3404 15.5334C29.3404 13.976 28.9884 12.728 28.2844 11.7894C27.6017 10.8507 26.631 10.3707 25.3724 10.3494H21.4044V29.4214C21.4044 29.9547 21.5964 30.424 21.9804 30.8294C22.3857 31.2347 22.8764 31.4374 23.4524 31.4374H23.8364L23.8684 31.7574H16.8604V31.4374H17.2764C17.8097 31.4374 18.279 31.2454 18.6844 30.8614C19.0897 30.4774 19.303 30.008 19.3244 29.4534V11.6934C19.303 11.1387 19.0897 10.6694 18.6844 10.2854C18.3004 9.88002 17.831 9.67735 17.2764 9.67735H16.8604V9.35735H25.5004C27.3777 9.35735 28.8817 9.89069 30.0124 10.9574C31.1644 12.0027 31.7404 13.4 31.7404 15.1494C31.7404 16.8774 31.2177 18.3707 30.1724 19.6294C29.127 20.8667 27.847 21.4854 26.3324 21.4854C26.3324 21.4854 26.3217 21.4854 26.3004 21.4854C27.0257 22.2534 27.847 23.1494 28.7644 24.1734C32.455 28.248 34.823 30.808 35.8684 31.8534C36.9137 32.8987 37.831 33.752 38.6204 34.4134C39.431 35.096 40.1457 35.5974 40.7644 35.9174C42.023 36.6 43.271 36.9414 44.5084 36.9414C44.7644 36.9414 45.0204 36.92 45.2764 36.8774V37.1974Z" fill="black"/>
<path d="M14.6676 26.7257C13.5582 28.1764 13.0036 29.7444 13.0036 31.4297C13.0036 33.435 13.8462 34.9924 15.5316 36.1017C16.5129 36.763 17.6222 37.0937 18.8596 37.0937C20.1182 37.0937 21.2062 36.8484 22.1236 36.3577C23.8516 35.4617 24.8222 33.9577 25.0356 31.8457C25.0569 31.6964 25.0676 31.547 25.0676 31.3977C25.0676 30.6084 24.8436 29.755 24.3956 28.8377C23.9689 27.9204 23.2649 27.0777 22.2836 26.3097L16.5236 21.7657C15.2649 20.7844 14.6356 19.515 14.6356 17.9577C14.6356 16.4004 15.1369 15.0884 16.1396 14.0217C17.1422 12.9337 18.4969 12.3897 20.2036 12.3897C21.0569 12.3897 21.9849 12.4964 22.9876 12.7097H24.2676L24.3316 16.6457H24.0116C23.9902 15.6217 23.6169 14.8217 22.8916 14.2457C22.1876 13.6484 21.2916 13.3497 20.2036 13.3497C19.1369 13.3497 18.2409 13.7124 17.5156 14.4377C16.7902 15.1417 16.4276 16.059 16.4276 17.1897C16.4276 18.299 16.8969 19.227 17.8356 19.9737L23.7556 24.6457C26.1022 26.5017 27.2756 28.7417 27.2756 31.3657C27.2756 33.3284 26.4969 35.0137 24.9396 36.4217C23.5956 37.6377 21.8036 38.2457 19.5636 38.2457C18.1982 38.2457 16.9822 37.9897 15.9156 37.4777C13.9102 36.539 12.7049 34.939 12.2996 32.6777C12.2356 32.3364 12.2036 31.9097 12.2036 31.3977C12.2036 30.8644 12.3529 30.1497 12.6516 29.2537C12.9502 28.3364 13.5262 27.419 14.3796 26.5017L14.6676 26.7257Z" fill="#1C8686"/>
<path d="M7.94356 48.0977C7.71956 48.1564 7.51956 48.1857 7.34356 48.1857C7.17289 48.1857 7.02089 48.175 6.88756 48.1537C6.75422 48.1324 6.61022 48.0897 6.45556 48.0257C6.30622 47.967 6.16489 47.8977 6.03156 47.8177C5.89822 47.7377 5.76489 47.639 5.63156 47.5217C5.38623 47.3244 5.16223 47.111 4.95956 46.8817C4.76223 46.6524 4.37823 46.223 3.80756 45.5937C3.23689 44.959 2.85822 44.5377 2.67156 44.3297C2.48489 44.1217 2.34089 44.0124 2.23956 44.0017V43.9217C2.54889 43.9217 2.75422 43.9164 2.85556 43.9057C2.96222 43.8897 3.07422 43.8657 3.19156 43.8337C3.30889 43.7964 3.40756 43.7484 3.48756 43.6897C3.80222 43.487 3.95956 43.151 3.95956 42.6817C3.95956 42.2924 3.87156 41.9804 3.69556 41.7457C3.52489 41.511 3.28222 41.391 2.96756 41.3857H1.97556V46.1537C1.97556 46.287 2.02356 46.4044 2.11956 46.5057C2.22089 46.607 2.34356 46.6577 2.48756 46.6577H2.58356L2.59156 46.7377H0.839558V46.6577H0.943558C1.07689 46.6577 1.19422 46.6097 1.29556 46.5137C1.39689 46.4177 1.45022 46.3004 1.45556 46.1617V41.7217C1.45022 41.583 1.39689 41.4657 1.29556 41.3697C1.19956 41.2684 1.08222 41.2177 0.943558 41.2177H0.839558V41.1377H2.99956C3.46889 41.1377 3.84489 41.271 4.12756 41.5377C4.41556 41.799 4.55956 42.1484 4.55956 42.5857C4.55956 43.0177 4.42889 43.391 4.16756 43.7057C3.90622 44.015 3.58622 44.1697 3.20756 44.1697C3.20756 44.1697 3.20489 44.1697 3.19956 44.1697C3.38089 44.3617 3.58622 44.5857 3.81556 44.8417C4.73822 45.8604 5.33022 46.5004 5.59156 46.7617C5.85289 47.023 6.08222 47.2364 6.27956 47.4017C6.48223 47.5724 6.66089 47.6977 6.81556 47.7777C7.13023 47.9484 7.44223 48.0337 7.75156 48.0337C7.81556 48.0337 7.87956 48.0284 7.94356 48.0177V48.0977ZM6.16231 46.6577C6.30097 46.6577 6.41831 46.6097 6.51431 46.5137C6.61564 46.4124 6.66897 46.2924 6.67431 46.1537V41.6737C6.67431 41.5457 6.62364 41.439 6.52231 41.3537C6.42097 41.263 6.30097 41.2177 6.16231 41.2177H6.06631L6.05831 41.1377H8.40231C8.56764 41.1377 8.74631 41.1217 8.93831 41.0897C9.13564 41.0577 9.27431 41.0257 9.35431 40.9937V42.0017H9.27431V41.8577C9.27431 41.7297 9.22897 41.6204 9.13831 41.5297C9.05297 41.439 8.94897 41.391 8.82631 41.3857H7.19431V43.8577H8.54631C8.65298 43.8524 8.74364 43.8124 8.81831 43.7377C8.89298 43.663 8.93031 43.5697 8.93031 43.4577V43.3457H9.01031V44.6097H8.93031V44.4897C8.93031 44.383 8.89298 44.2924 8.81831 44.2177C8.74897 44.143 8.66097 44.103 8.55431 44.0977H7.19431V46.4897H8.33831C8.73298 46.4897 9.03431 46.4017 9.24231 46.2257C9.45031 46.0497 9.62364 45.7884 9.76231 45.4417H9.84231L9.37831 46.7377H6.05831V46.6577H6.16231ZM10.6835 46.4097C10.6675 46.335 10.6595 46.191 10.6595 45.9777C10.6595 45.7644 10.6995 45.5377 10.7795 45.2977H10.8515C10.8462 45.3564 10.8435 45.415 10.8435 45.4737C10.8435 45.799 10.9422 46.071 11.1395 46.2897C11.3368 46.503 11.5982 46.6097 11.9235 46.6097C12.2595 46.6097 12.5342 46.5084 12.7475 46.3057C12.9662 46.103 13.0755 45.8497 13.0755 45.5457C13.0755 45.2364 12.9715 44.9857 12.7635 44.7937L11.2275 43.3697C10.9395 43.103 10.7955 42.7804 10.7955 42.4017C10.7955 42.023 10.9208 41.7004 11.1715 41.4337C11.4275 41.1617 11.7715 41.0257 12.2035 41.0257C12.4062 41.0257 12.6355 41.0524 12.8915 41.1057H13.2035V42.0897H13.1315C13.1315 41.839 13.0435 41.639 12.8675 41.4897C12.6968 41.3404 12.4755 41.2657 12.2035 41.2657C11.9315 41.2657 11.7022 41.3564 11.5155 41.5377C11.3342 41.719 11.2435 41.9457 11.2435 42.2177C11.2435 42.4897 11.3502 42.7244 11.5635 42.9217L13.1395 44.3777C13.4062 44.623 13.5395 44.959 13.5395 45.3857C13.5395 45.8124 13.4035 46.1644 13.1315 46.4417C12.8595 46.7137 12.4968 46.8497 12.0435 46.8497C11.8088 46.8497 11.5582 46.8124 11.2915 46.7377C11.0302 46.6684 10.8275 46.559 10.6835 46.4097ZM19.8802 41.2177H19.7522C19.6402 41.2177 19.5415 41.255 19.4562 41.3297C19.3762 41.399 19.3335 41.487 19.3282 41.5937V44.7617C19.3282 45.3857 19.1308 45.8897 18.7362 46.2737C18.3415 46.6577 17.8162 46.8497 17.1602 46.8497C16.5042 46.8497 15.9708 46.6604 15.5602 46.2817C15.1548 45.8977 14.9522 45.3937 14.9522 44.7697V41.6177C14.9522 41.4577 14.8828 41.3404 14.7442 41.2657C14.6802 41.2337 14.6082 41.2177 14.5282 41.2177H14.4002V41.1377H16.0242V41.2177H15.8962C15.7788 41.2177 15.6802 41.255 15.6002 41.3297C15.5202 41.399 15.4775 41.4897 15.4722 41.6017V44.6577C15.4722 45.239 15.6268 45.7084 15.9362 46.0657C16.2508 46.423 16.6695 46.6017 17.1922 46.6017C17.7148 46.6017 18.1388 46.4337 18.4642 46.0977C18.7895 45.7564 18.9522 45.311 18.9522 44.7617V41.6017C18.9468 41.4897 18.9042 41.399 18.8242 41.3297C18.7442 41.255 18.6455 41.2177 18.5282 41.2177H18.4002V41.1377H19.8802V41.2177ZM27.3252 46.6577H27.4532V46.7377H25.7172V46.6657H25.8372C25.9278 46.6657 26.0052 46.631 26.0692 46.5617C26.1332 46.4924 26.1599 46.4124 26.1492 46.3217L25.7892 42.2977L24.1092 46.0337C23.9598 46.359 23.8692 46.631 23.8372 46.8497H23.7572L21.7092 42.4097L21.3652 46.3217C21.3545 46.407 21.3812 46.487 21.4452 46.5617C21.5092 46.631 21.5865 46.6657 21.6772 46.6657H21.7972V46.7377H20.2452V46.6577H20.3732C20.5225 46.6577 20.6505 46.6124 20.7572 46.5217C20.8692 46.431 20.9358 46.3084 20.9572 46.1537L21.5572 41.0257H21.6372L23.8692 45.8497L26.0532 41.0257H26.1252L26.7412 46.1537C26.7625 46.3084 26.8292 46.431 26.9412 46.5217C27.0532 46.6124 27.1812 46.6577 27.3252 46.6577ZM28.1545 46.6577C28.2932 46.6577 28.4105 46.6097 28.5065 46.5137C28.6078 46.4124 28.6612 46.2924 28.6665 46.1537V41.6737C28.6665 41.5457 28.6158 41.439 28.5145 41.3537C28.4132 41.263 28.2932 41.2177 28.1545 41.2177H28.0585L28.0505 41.1377H30.3945C30.5598 41.1377 30.7385 41.1217 30.9305 41.0897C31.1278 41.0577 31.2665 41.0257 31.3465 40.9937V42.0017H31.2665V41.8577C31.2665 41.7297 31.2212 41.6204 31.1305 41.5297C31.0452 41.439 30.9412 41.391 30.8185 41.3857H29.1865V43.8577H30.5385C30.6452 43.8524 30.7358 43.8124 30.8105 43.7377C30.8852 43.663 30.9225 43.5697 30.9225 43.4577V43.3457H31.0025V44.6097H30.9225V44.4897C30.9225 44.383 30.8852 44.2924 30.8105 44.2177C30.7412 44.143 30.6532 44.103 30.5465 44.0977H29.1865V46.4897H30.3305C30.7252 46.4897 31.0265 46.4017 31.2345 46.2257C31.4425 46.0497 31.6158 45.7884 31.7545 45.4417H31.8345L31.3705 46.7377H28.0505V46.6577H28.1545Z" fill="black"/>
<path d="M35.1397 44.6097C34.8623 44.9724 34.7237 45.3644 34.7237 45.7857C34.7237 46.287 34.9343 46.6764 35.3557 46.9537C35.601 47.119 35.8783 47.2017 36.1877 47.2017C36.5023 47.2017 36.7743 47.1404 37.0037 47.0177C37.4357 46.7937 37.6783 46.4177 37.7317 45.8897C37.737 45.8524 37.7397 45.815 37.7397 45.7777C37.7397 45.5804 37.6837 45.367 37.5717 45.1377C37.465 44.9084 37.289 44.6977 37.0437 44.5057L35.6037 43.3697C35.289 43.1244 35.1317 42.807 35.1317 42.4177C35.1317 42.0284 35.257 41.7004 35.5077 41.4337C35.7583 41.1617 36.097 41.0257 36.5237 41.0257C36.737 41.0257 36.969 41.0524 37.2197 41.1057H37.5397L37.5557 42.0897H37.4757C37.4703 41.8337 37.377 41.6337 37.1957 41.4897C37.0197 41.3404 36.7957 41.2657 36.5237 41.2657C36.257 41.2657 36.033 41.3564 35.8517 41.5377C35.6703 41.7137 35.5797 41.943 35.5797 42.2257C35.5797 42.503 35.697 42.735 35.9317 42.9217L37.4117 44.0897C37.9983 44.5537 38.2917 45.1137 38.2917 45.7697C38.2917 46.2604 38.097 46.6817 37.7077 47.0337C37.3717 47.3377 36.9237 47.4897 36.3637 47.4897C36.0223 47.4897 35.7183 47.4257 35.4517 47.2977C34.9503 47.063 34.649 46.663 34.5477 46.0977C34.5317 46.0124 34.5237 45.9057 34.5237 45.7777C34.5237 45.6444 34.561 45.4657 34.6357 45.2417C34.7103 45.0124 34.8543 44.783 35.0677 44.5537L35.1397 44.6097ZM39.1623 46.6577C39.301 46.6577 39.4183 46.6097 39.5143 46.5137C39.6156 46.4124 39.669 46.2924 39.6743 46.1537V41.7217C39.669 41.583 39.6156 41.4657 39.5143 41.3697C39.4183 41.2684 39.301 41.2177 39.1623 41.2177H39.0583V41.1377H40.8103V41.2177H40.7063C40.5143 41.2177 40.3676 41.3004 40.2663 41.4657C40.2183 41.5457 40.1943 41.631 40.1943 41.7217V46.4897H41.3383C41.733 46.4897 42.0343 46.4017 42.2423 46.2257C42.4503 46.0497 42.6236 45.7884 42.7623 45.4417H42.8423L42.3783 46.7377H39.0583V46.6577H39.1623ZM43.5373 46.6577C43.676 46.6577 43.7933 46.6097 43.8893 46.5137C43.9906 46.4124 44.044 46.2924 44.0493 46.1537V41.7137C44.044 41.575 43.9906 41.4577 43.8893 41.3617C43.7933 41.2657 43.676 41.2177 43.5373 41.2177H43.4333V41.1377H45.1853V41.2177H45.0813C44.9426 41.2177 44.8226 41.2657 44.7213 41.3617C44.6253 41.4577 44.5746 41.575 44.5693 41.7137V46.1537C44.5693 46.2924 44.62 46.4124 44.7213 46.5137C44.8226 46.6097 44.9426 46.6577 45.0813 46.6577H45.1853V46.7377H43.4333V46.6577H43.5373ZM49.8724 42.6817C49.8724 42.9164 49.8244 43.135 49.7284 43.3377C49.5524 43.7164 49.2431 43.9804 48.8004 44.1297C48.6458 44.183 48.5124 44.2097 48.4004 44.2097C48.0698 44.2097 47.7844 44.1484 47.5444 44.0257V43.9457C47.9338 44.031 48.2938 43.9884 48.6244 43.8177C48.9178 43.6684 49.1178 43.423 49.2244 43.0817C49.2564 42.975 49.2724 42.8737 49.2724 42.7777C49.2724 42.6817 49.2724 42.623 49.2724 42.6017C49.2618 42.2284 49.1631 41.9324 48.9764 41.7137C48.7898 41.4897 48.5284 41.3777 48.1924 41.3777H47.2724V46.1537C47.2778 46.2924 47.3284 46.4124 47.4244 46.5137C47.5258 46.6097 47.6458 46.6577 47.7844 46.6577H47.8884V46.7377H46.1364V46.6577H46.2404C46.3791 46.6577 46.4964 46.6097 46.5924 46.5137C46.6938 46.4124 46.7471 46.2924 46.7524 46.1537V41.6817C46.7364 41.5484 46.6804 41.439 46.5844 41.3537C46.4884 41.263 46.3738 41.2177 46.2404 41.2177H46.1444L46.1364 41.1377H48.2244C48.7364 41.1377 49.1391 41.2764 49.4324 41.5537C49.7258 41.8257 49.8724 42.2017 49.8724 42.6817Z" fill="#1C8686"/>
</svg>
